<svg width="46" height="14" viewBox="0 0 46 14" fill="none"
  xmlns="http://www.w3.org/2000/svg">
  <path fill-rule="evenodd" clip-rule="evenodd" d="M26.9757 1.69953C26.9757 2.61581 27.7357 3.3758 28.6743 3.3758V3.37487C29.5906 3.37487 30.3506 2.6372 30.3506 1.6986C30.3506 0.759998 29.6139 0 28.6743 0C27.7348 0 26.9757 0.783254 26.9757 1.69953ZM42.212 1.69953C42.212 2.61581 42.972 3.3758 43.9106 3.3758V3.37487C44.8269 3.37487 45.5868 2.6372 45.5868 1.6986C45.5868 0.759998 44.8492 0 43.9106 0C42.972 0 42.212 0.783254 42.212 1.69953ZM30.1246 4.55534H27.2018V13.8958H30.1246V4.55534ZM40.8436 0.413063H32.5683V13.8967H35.4911V8.80281H39.9943V6.25398H35.4911V2.96189H40.8436V0.413063ZM45.3608 4.55534H42.438V13.8958H45.3608V4.55534ZM10.1907 6.25398V4.55259H10.1916H11.8893V6.25119H13.5869V6.78886C13.5869 7.41118 13.5339 8.14792 13.4121 8.72746C13.3441 9.05118 13.2409 9.37304 13.12 9.68187C12.9962 9.99722 12.853 10.2995 12.6976 10.5712C12.4948 10.9247 12.2595 11.2651 11.9869 11.5842L11.9657 11.6092C11.8949 11.6928 11.8248 11.7755 11.7479 11.8558C11.6651 11.9451 11.5786 12.0288 11.4911 12.1126C10.4046 13.1591 8.98788 13.8121 7.50789 13.9628C7.33021 13.9814 6.97207 14 6.79347 14C6.61486 13.9991 6.25673 13.9805 6.07905 13.9628C4.59813 13.8121 3.18232 13.1591 2.09581 12.1126L2.09488 12.1117L2.09488 12.1117L2.09487 12.1117L2.09486 12.1117C2.00774 12.0273 1.92156 11.9439 1.83906 11.8558C1.76211 11.7755 1.69207 11.6928 1.62126 11.6093L1.62124 11.6092L1.6 11.5842C1.32744 11.2651 1.09209 10.9256 0.8893 10.5712C0.733951 10.3005 0.590696 9.99815 0.466975 9.68187C0.346046 9.37304 0.24279 9.05118 0.174883 8.72746C0.0530231 8.14792 0 7.41118 0 6.78886V0.413063H3.39441V6.25398C3.39441 6.25398 3.39441 6.70142 3.39999 6.84839L3.40102 6.8765C3.40807 7.06849 3.41494 7.25565 3.43534 7.44281C3.49115 7.96746 3.60743 8.46513 3.8465 8.8856C3.91534 9.00746 3.98604 9.1256 4.06976 9.23722C4.58045 9.91815 5.35812 10.4298 6.32742 10.5721C6.44277 10.5888 6.67626 10.6037 6.79254 10.6037C6.90975 10.6037 7.1423 10.5888 7.25765 10.5721C8.22695 10.4298 9.00463 9.91815 9.51532 9.23722C9.59904 9.12467 9.66974 9.00746 9.73858 8.8856C9.97765 8.4642 10.0939 7.96746 10.1497 7.44281C10.1701 7.25566 10.177 7.06852 10.1841 6.87653V6.87652V6.87651V6.8765V6.87649L10.1851 6.84839C10.1907 6.70142 10.1907 6.25398 10.1907 6.25398ZM11.8874 1.58144H10.6139V2.85492H11.8874V1.58144ZM12.3125 0.307027H13.1618V1.15633H12.3125V0.307027ZM13.586 4.55258H11.8883V3.80839V2.85491H13.586V4.55258ZM24.7581 13.8967H21.8548V13.8958V8.40555C21.8548 8.40555 21.8548 8.213 21.852 8.14974C21.8493 8.06323 21.8465 7.97858 21.8372 7.89393C21.813 7.66788 21.7637 7.45393 21.6604 7.27347C21.6307 7.22137 21.6009 7.17114 21.5646 7.12277C21.3451 6.82974 21.0111 6.61021 20.5944 6.54882C20.5451 6.54137 20.4446 6.53486 20.3944 6.53486C20.3441 6.53486 20.2437 6.54137 20.1944 6.54882C19.7776 6.61021 19.4437 6.82974 19.2241 7.12277C19.1879 7.17021 19.1581 7.22137 19.1283 7.27347C19.0251 7.45486 18.9758 7.66881 18.9516 7.89393C18.9432 7.97858 18.9395 8.06323 18.9367 8.14974C18.9339 8.213 18.9339 8.40555 18.9339 8.40555V13.8865H16.0307V4.54603H18.8279V5.39533C18.8279 5.39533 19.8241 4.15533 21.8111 4.24278C23.5972 4.32185 24.7581 5.69207 24.7581 7.55439V13.8967Z" fill="currentColor"/>
</svg>
